<svg width="512" height="512" viewBox="0 0 512 512" fill="none" xmlns="http://www.w3.org/2000/svg">
<rect x="6.73684" y="6.73684" width="498.526" height="498.526" rx="33.6842" fill="#C6A0F6"/>
<rect x="6.73684" y="6.73684" width="498.526" height="498.526" rx="33.6842" stroke="#C6A0F6" stroke-width="13.4737"/>
<path d="M385.432 244.019L268.007 126.573C261.249 119.809 250.281 119.809 243.513 126.573L219.134 150.964L250.064 181.901C257.254 179.474 265.495 181.102 271.224 186.832C273.954 189.565 275.86 193.012 276.724 196.778C277.588 200.544 277.375 204.477 276.109 208.127L305.918 237.948C313.13 235.461 321.454 237.067 327.21 242.838C335.264 250.887 335.264 263.935 327.21 271.988C325.297 273.903 323.024 275.422 320.523 276.458C318.022 277.495 315.342 278.028 312.635 278.028C309.928 278.028 307.247 277.495 304.746 276.458C302.245 275.422 299.973 273.903 298.059 271.988C295.185 269.109 293.225 265.445 292.427 261.456C291.629 257.467 292.028 253.331 293.574 249.568L265.776 221.761L265.772 294.94C267.789 295.933 269.63 297.249 271.224 298.836C279.275 306.884 279.275 319.928 271.224 327.994C263.173 336.042 250.124 336.042 242.081 327.994C234.032 319.93 233.372 306.886 241.418 298.836C243.408 296.847 245.37 295.345 247.501 294.339V220.482C245.37 219.476 243.41 217.985 241.416 215.984C235.321 209.889 234.181 200.939 237.309 193.447L206.986 162.946L126.552 243.475C119.788 250.245 119.83 261.216 126.595 267.981L244.039 385.427C250.799 392.191 261.775 392.191 268.546 385.427L385.423 268.527C392.188 261.759 392.194 250.782 385.432 244.019Z" fill="#181926"/>
</svg>
